/* XPM */
static char *mandatory_exit[] = {
/* columns rows colors chars-per-pixel */
"32 32 7 1",
"  c None",
". c #C0C0C0",
"+ c #FFFFFF",
"@ c #FFD700",
"# c #4169E1",
"$ c #000080",
"* c #FF4500",
/* pixels */
"                                ",
"              ....              ",
"            ..++++..            ",
"          ..++++++++..          ",
"        ..++++++++++@@..        ",
"      ..++++++++++++@@@@..      ",
"    ..++++++++++++++@@@@@@..    ",
"  ..++++++++++++++++@@@@@@@@..  ",
"..++++++++++++++++++@@@@@@@@@@..",
".++++++++++++++++++++@@@@@@@@@@.",
".++++++$####****$++++@@@@@@@@@@.",
".++++++$####****$++++@@@@@@@@@@.",
".++++++$####****$++++@@@@@@@@@@.",
".++++++$####****$++++@@@@@@@@@@.",
".++++++$####****$++++@@@@@@@@@@.",
".++++++$####****$++++@@@@@@@@@@.",
".++++++$####****$++++@@@@@@@@@@.",
".++++++$####****$++++@@@@@@@@@@.",
".++++++++++++++++++++@@@@@@@@@@.",
"..++++++++++++++++++@@@@@@@@@@..",
"  ..++++++++++++++++@@@@@@@@..  ",
"    ..++++++++++++++@@@@@@..    ",
"      ..++++++++++++@@@@..      ",
"        ..++++++++++@@..        ",
"          ..++++++++..          ",
"            ..++++..            ",
"              ....              ",
"                                ",
"                                ",
"                                ",
"                                ",
"                                "
