/* XPM */
static char *mandatory_collectible[] = {
/* columns rows colors chars-per-pixel */
"32 32 6 1",
"  c None",
". c #FFD700",
"+ c #FFA500",
"@ c #FF8C00",
"# c #FF4500",
"$ c #FF0000",
/* pixels */
"                                ",
"                                ",
"            ....                ",
"           .++++.               ",
"          .+@@@@+.              ",
"         .+@@##@@+.             ",
"        .+@@####@@+.            ",
"       .+@@######@@+.           ",
"      .+@@########@@+.          ",
"     .+@@##########@@+.         ",
"    .+@@############@@+.        ",
"   .+@@##############@@+.       ",
"  .+@@################@@+.      ",
" .+@@##################@@+.     ",
".+@@####################@@+.    ",
".+@@#########$$###########@+.   ",
".+@@#########$$###########@+.   ",
".+@@####################@@+.    ",
" .+@@##################@@+.     ",
"  .+@@################@@+.      ",
"   .+@@##############@@+.       ",
"    .+@@############@@+.        ",
"     .+@@##########@@+.         ",
"      .+@@########@@+.          ",
"       .+@@######@@+.           ",
"        .+@@####@@+.            ",
"         .+@@##@@+.             ",
"          .+@@@@+.              ",
"           .++++.               ",
"            ....                ",
"                                ",
"                                "
