/* XPM */
static char *alien[] = {
"64 64 4 1",
"  c None",
". c #00FF00",
"+ c #00CC00",
"@ c #FF0000",
"                                                                ",
"                                                                ",
"                            ....                                ",
"                          ........                              ",
"                        ............                            ",
"                      ................                          ",
"                    ....................                        ",
"                  ........................                      ",
"                ............................                    ",
"              ................................                  ",
"            ....................................                ",
"          ........................................              ",
"        ............................................            ",
"      ................................................          ",
"    ....................................................        ",
"  ........................................................      ",
"............................................................    ",
"  ........................................................      ",
"    ....................................................        ",
"      ................................................          ",
"        ............................................            ",
"          ........................................              ",
"            ....................................                ",
"              ................................                  ",
"                ............................                    ",
"                  ........................                      ",
"                    ....................                        ",
"                      ................                          ",
"                        ............                            ",
"                          ........                              ",
"                            ....                                ",
"                                                                ",
"                                                                ",
"                                                                ",
"                                                                ",
"                                                                ",
"                                                                ",
"                                                                ",
"                                                                ",
"                                                                ",
"                                                                ",
"                                                                ",
"                                                                ",
"                                                                ",
"                                                                ",
"                                                                ",
"                                                                ",
"                                                                ",
"                                                                ",
"                                                                ",
"                                                                ",
"                                                                ",
"                                                                ",
"                                                                ",
"                                                                ",
"                                                                ",
"                                                                ",
"                                                                ",
"                                                                ",
"                                                                ",
"                                                                ",
"                                                                ",
"                                                                ",
"                                                                ",
"                                                                ",
"                                                                ",
"                                                                ",
"                                                                "
};
